HIERARCHY
ROOT Hips
{
	OFFSET 0.000000 0.000000 0.000000
	CHANNELS 6 Xposition Yposition Zposition Xrotation Yrotation Zrotation
	JOINT LeftUpLeg_virtual
	{
		OFFSET 0.000000 0.000000 0.000000
		CHANNELS 3 Xrotation Yrotation Zrotation
		JOINT LeftUpLeg
		{
			OFFSET 11.394100 -6.187798 -0.413800
			CHANNELS 3 Xrotation Yrotation Zrotation
			JOINT LeftLeg
			{
				OFFSET 0.430247 -32.302673 3.732800
				CHANNELS 3 Xrotation Yrotation Zrotation
				JOINT LeftFoot
				{
					OFFSET -0.430247 -48.264931 -6.423300
					CHANNELS 3 Xrotation Yrotation Zrotation
					JOINT LeftToeBase
					{
						OFFSET 4.230900 -16.068199 23.438400
						CHANNELS 3 Xrotation Yrotation Zrotation
						JOINT LeftToe_End
						{
							OFFSET 4.510700 0.695400 19.974600
							CHANNELS 3 Xrotation Yrotation Zrotation
							End Site
							{
								OFFSET 0 0 0
							}
						}
					}
				}
			}
		}
	}
	JOINT RightUpLeg_virtual
	{
		OFFSET 0.000000 0.000000 0.000000
		CHANNELS 3 Xrotation Yrotation Zrotation
		JOINT RightUpLeg
		{
			OFFSET -11.333700 -6.187798 -0.413800
			CHANNELS 3 Xrotation Yrotation Zrotation
			JOINT RightLeg
			{
				OFFSET -0.430392 -32.302628 3.733000
				CHANNELS 3 Xrotation Yrotation Zrotation
				JOINT RightFoot
				{
					OFFSET 0.430392 -48.264973 -6.423500
					CHANNELS 3 Xrotation Yrotation Zrotation
					JOINT RightToeBase
					{
						OFFSET -4.230900 -16.068199 23.438400
						CHANNELS 3 Xrotation Yrotation Zrotation
						JOINT RightToe_End
						{
							OFFSET -4.510700 0.695400 19.974600
							CHANNELS 3 Xrotation Yrotation Zrotation
							End Site
							{
								OFFSET 0 0 0
							}
						}
					}
				}
			}
		}
	}
	JOINT Spine_virtual
	{
		OFFSET 0.000000 0.000000 0.000000
		CHANNELS 3 Xrotation Yrotation Zrotation
		JOINT Spine
		{
			OFFSET -0.002400 12.777504 0.315300
			CHANNELS 3 Xrotation Yrotation Zrotation
			JOINT Spine1
			{
				OFFSET -0.002067 5.816869 0.032633
				CHANNELS 3 Xrotation Yrotation Zrotation
				JOINT Spine1_split
				{
					OFFSET -0.002067 5.816869 0.032633
					CHANNELS 3 Xrotation Yrotation Zrotation
					JOINT Spine2
					{
						OFFSET -0.002067 5.816869 0.032633
						CHANNELS 3 Xrotation Yrotation Zrotation
						JOINT Neck_virtual
						{
							OFFSET 0.000000 0.000000 0.000000
							CHANNELS 3 Xrotation Yrotation Zrotation
							JOINT Neck
							{
								OFFSET -0.003700 21.199493 -0.826900
								CHANNELS 3 Xrotation Yrotation Zrotation
								JOINT Head
								{
									OFFSET 0.000000 20.442200 4.834800
									CHANNELS 3 Xrotation Yrotation Zrotation
									JOINT HeadTop_End
									{
										OFFSET 0.000000 34.668396 4.968400
										CHANNELS 3 Xrotation Yrotation Zrotation
										End Site
										{
											OFFSET 0 0 0
										}
									}
								}
							}
						}
						JOINT LeftShoulder_virtual
						{
							OFFSET 0.000000 0.000000 0.000000
							CHANNELS 3 Xrotation Yrotation Zrotation
							JOINT LeftShoulder
							{
								OFFSET 3.288150 8.794197 -1.372250
								CHANNELS 3 Xrotation Yrotation Zrotation
								JOINT LeftShoulder_split
								{
									OFFSET 3.288150 8.794197 -1.372250
									CHANNELS 3 Xrotation Yrotation Zrotation
									JOINT LeftArm
									{
										OFFSET 11.953299 -2.279007 -0.146200
										CHANNELS 3 Xrotation Yrotation Zrotation
										JOINT LeftForeArm
										{
											OFFSET 18.448900 0.000000 0.000000
											CHANNELS 3 Xrotation Yrotation Zrotation
											JOINT LeftHand
											{
												OFFSET 29.527798 0.000000 0.000000
												CHANNELS 3 Xrotation Yrotation Zrotation
												End Site
												{
													OFFSET 0 0 0
												}
											}
										}
									}
								}
							}
						}
						JOINT RightShoulder_virtual
						{
							OFFSET 0.000000 0.000000 0.000000
							CHANNELS 3 Xrotation Yrotation Zrotation
							JOINT RightShoulder
							{
								OFFSET -3.249400 8.794197 -1.372250
								CHANNELS 3 Xrotation Yrotation Zrotation
								JOINT RightShoulder_split
								{
									OFFSET -3.249400 8.794197 -1.372250
									CHANNELS 3 Xrotation Yrotation Zrotation
									JOINT RightArm
									{
										OFFSET -11.953299 -2.279007 -0.146200
										CHANNELS 3 Xrotation Yrotation Zrotation
										JOINT RightForeArm
										{
											OFFSET -18.448900 0.000000 0.000000
											CHANNELS 3 Xrotation Yrotation Zrotation
											JOINT RightHand
											{
												OFFSET -29.527802 0.000000 0.000000
												CHANNELS 3 Xrotation Yrotation Zrotation
												End Site
												{
													OFFSET 0 0 0
												}
											}
										}
									}
								}
							}
						}
					}
				}
			}
		}
	}
}
MOTION
Frames: 5
Frame Time: 0.03333333
-0.348165 86.842606 0.245255 0.000000 0.000000 0.000000 1.711987 -61.219307 4.246027 -37.454411 5.935457 23.697951 41.060058 -5.050372 -5.504255 -4.941649 -2.290850 -6.846482 0.210808 0.760129 1.050357 0.000000 0.000000 0.000000 0.496644 -60.552277 3.782937 -35.231407 -10.354398 -22.744200 42.638228 4.141916 -6.820813 -13.248796 2.169801 22.170367 2.942505 -1.796386 -2.276597 0.000000 0.000000 0.000000 0.604341 -59.229283 3.563216 11.565115 0.566543 -2.036877 9.045906 -0.826352 -5.495694 1.148600 -4.216264 1.259979 0.000000 0.000000 0.000000 9.941357 -0.541003 -5.474180 -18.694125 19.282753 13.215108 -3.606964 26.611766 -2.258904 0.000000 0.000000 0.000000 9.573257 -0.837025 -5.048601 -5.835440 -10.807835 -4.209643 -0.193134 -3.309528 -1.328924 -18.406400 8.205604 -31.487865 3.980091 -38.350177 2.799019 0.000000 0.000000 0.000000 9.168782 -0.902314 -5.493185 -6.006577 7.334106 3.320607 0.973948 0.092695 1.968994 -40.286436 -18.617041 34.115180 -161.264591 64.737633 161.687380 0.000000 0.000000 0.000000 
-0.436988 86.720215 0.603436 0.000000 0.000000 0.000000 1.479479 -61.512185 3.983994 -37.405719 6.307313 23.948067 41.301922 -5.265948 -5.500801 -5.164090 -2.340122 -6.789357 0.057450 0.782990 1.104089 0.000000 0.000000 0.000000 0.323859 -60.479659 3.550289 -34.959722 -10.334922 -22.556707 43.195861 3.951060 -6.748983 -13.291809 1.990991 21.737765 2.637557 -1.780192 -2.189288 0.000000 0.000000 0.000000 0.034483 -58.977775 2.998928 11.456622 0.477307 -2.099073 8.801244 -0.817219 -5.565046 0.950072 -3.216938 1.016080 0.000000 0.000000 0.000000 9.170049 -0.534748 -5.576473 -18.082369 19.065802 12.755188 -2.505790 25.981444 -1.796387 0.000000 0.000000 0.000000 9.308329 -0.850588 -5.226158 -5.721029 -10.670924 -4.506122 -0.504147 -2.481249 -1.684862 -18.513378 7.596529 -31.688649 4.213029 -38.676957 3.002991 0.000000 0.000000 0.000000 8.998884 -0.850213 -5.622467 -5.958955 7.360202 3.829800 1.200977 0.453333 2.716854 -38.842316 -18.662300 34.974096 -159.234632 66.015793 159.714534 0.000000 0.000000 0.000000 
-0.599852 86.807915 0.959282 0.000000 0.000000 0.000000 0.918235 -61.833183 3.220912 -37.394920 6.964049 24.428655 41.635235 -5.608500 -5.428266 -5.457517 -2.430710 -6.697123 0.016013 0.858475 1.016199 0.000000 0.000000 0.000000 -0.157511 -60.438882 2.819816 -34.225958 -10.503275 -22.135226 43.324061 3.792625 -6.689903 -12.938028 1.828658 21.448208 2.027158 -1.806328 -2.171164 0.000000 0.000000 0.000000 -0.624151 -58.658389 2.118983 11.115954 0.505245 -2.083486 8.153777 -0.653781 -5.707965 0.679299 -2.355784 0.681854 0.000000 0.000000 0.000000 7.910216 -0.348514 -5.785110 -16.873163 18.518871 12.385652 0.086545 23.527959 -0.262184 0.000000 0.000000 0.000000 8.639943 -0.731314 -5.475763 -5.698508 -10.428241 -4.847381 -1.251464 -1.680755 -1.859946 -18.653084 6.666100 -32.300122 3.414429 -39.199525 2.387491 0.000000 0.000000 0.000000 8.403847 -0.603267 -5.755762 -5.863617 7.158834 4.675970 1.451671 0.864400 2.385989 -37.108110 -17.847206 36.351486 -155.523544 68.461916 156.015113 0.000000 0.000000 0.000000 
-0.763584 87.163536 1.182346 0.000000 0.000000 0.000000 0.186388 -62.020570 2.151201 -37.301927 7.748552 24.963170 41.659018 -5.983067 -5.298830 -5.578160 -2.555724 -6.652552 -0.076186 0.965817 0.843054 0.000000 0.000000 0.000000 -0.703262 -60.422831 1.859048 -33.090603 -10.860044 -21.531220 42.575328 3.693904 -6.654642 -12.278342 1.737620 21.265548 1.398421 -1.847571 -2.190467 0.000000 0.000000 0.000000 -1.189132 -58.388016 1.165904 10.590315 0.655447 -1.999798 7.235874 -0.358124 -5.874600 0.456229 -1.479548 0.400232 0.000000 0.000000 0.000000 6.441845 0.011944 -6.007502 -15.532077 17.862335 12.075225 3.382030 20.025720 2.000124 0.000000 0.000000 0.000000 7.680088 -0.477928 -5.726749 -5.749585 -10.087866 -5.120388 -2.177480 -1.007490 -1.797170 -18.749076 5.601490 -33.173303 2.015049 -40.190114 1.226601 0.000000 0.000000 0.000000 7.467660 -0.221593 -5.856018 -5.678390 6.710606 5.569472 1.693899 0.982385 1.399196 -35.632492 -16.411944 38.084865 -149.901014 71.303746 150.345919 0.000000 0.000000 0.000000 
-0.852722 87.816963 1.315002 0.000000 0.000000 0.000000 -0.558076 -62.122346 1.009530 -37.049989 8.540603 25.398408 41.034472 -6.282825 -5.149075 -5.238434 -2.709137 -6.641359 -0.333216 1.062258 0.674193 0.000000 0.000000 0.000000 -1.181784 -60.420741 0.902573 -31.743198 -11.382504 -20.834575 40.814451 3.641536 -6.636898 -11.271842 1.774913 21.126252 1.151417 -1.872509 -2.194477 0.000000 0.000000 0.000000 -1.426236 -58.283329 0.411295 9.978775 0.906489 -1.892452 6.206959 0.007519 -5.998596 0.408228 -1.000225 0.446318 0.000000 0.000000 0.000000 5.059935 0.450810 -6.167698 -14.805448 17.327495 11.638787 6.179309 16.473644 4.397578 0.000000 0.000000 0.000000 6.617709 -0.141903 -5.869602 -5.816961 -9.683014 -5.109147 -3.055468 -0.272078 -1.916466 -18.706240 4.699869 -34.177215 0.644479 -41.452036 0.026647 0.000000 0.000000 0.000000 6.361332 0.215120 -5.867866 -5.440436 6.124510 6.191596 1.861754 1.058735 0.553331 -34.546991 -14.678024 40.060108 -142.189225 74.009812 142.518550 0.000000 0.000000 0.000000 
